<svg width="431" height="342" viewBox="0 0 431 342" fill="none" xmlns="http://www.w3.org/2000/svg">
<g clip-path="url(#clip0_2_816)">
<path d="M311.89 -0.0449829L394.353 11.205L387.215 63.505L304.74 52.255L311.89 -0.0449829Z" fill="#D9CBF6"/>
<path d="M311.862 -0.0324707C323.575 14.4675 335.737 28.5425 348.075 42.4925C363.675 32.3425 379.187 22.0675 394.337 11.2175C382.1 18.38 370.087 25.855 358.125 33.505C354.9 35.555 351.662 37.63 348.437 39.705C345.9 36.855 343.35 33.98 340.8 31.155C340.8 31.155 340.792 31.1425 340.775 31.1175C331.312 20.58 321.725 10.1175 311.862 -0.0324707Z" fill="white"/>
<path d="M357.77 34.645C366.72 44.545 376.583 53.6325 387.158 61.7825C378.195 51.87 368.358 42.7825 357.77 34.645Z" fill="white"/>
<path d="M305.25 50.6075C317.625 45.595 329.562 39.4825 340.837 32.3325C328.462 37.3325 316.537 43.4575 305.25 50.6075Z" fill="white"/>
<path d="M378.637 317.503L170.4 318.402C119.788 278.653 114.562 219.778 150.662 184.077C180.137 154.953 220.325 173.052 253.575 155.527C283.962 139.653 301.075 96.8025 327.975 68.44C346.8 48.34 384.263 47.69 403.862 75.94C453.65 147.753 430.837 254.615 378.637 317.503Z" fill="#00BDD6"/>
<path opacity="0.1" d="M383.255 153.275C377.805 238.713 279.13 270.6 217.517 245.013C163.942 222.75 181.467 171.963 226.692 163.463C273.192 159.513 289.805 115.6 319.005 78.8875C353.105 61.175 387.255 90.7125 383.255 153.275Z" fill="#010101"/>
<path d="M187.468 330.87C190.68 329.695 263.255 271.695 264.618 267.733C262.268 258.345 210.88 195.595 210.205 194.358L161.543 233.008C166.743 239.17 196.118 274.02 200.58 279.333C200.58 279.333 182.73 313.97 181.693 318.47C180.668 322.958 184.255 332.045 187.468 330.87Z" fill="#FFD3A5"/>
<path d="M187.43 330.823C190.63 329.648 263.205 271.66 264.568 267.685C265.005 266.46 259.905 258.91 252.68 249.098C247.318 255.035 179.605 330.673 192.555 294.985C187.655 304.773 182.193 315.985 181.63 318.423C180.618 322.923 184.193 331.998 187.418 330.823H187.43Z" fill="#00454F"/>
<path d="M112.36 158.765C116.623 185.815 178.46 257.365 186.835 267.29L238.373 227.69C237.598 226.715 193.148 168.465 192.398 167.503C213.31 179.253 296.323 225.078 334.348 166.628L285.348 140.503C252.835 153.378 172.21 112.29 150.435 114.478C129.948 115.315 109.323 135.565 112.385 158.765H112.36Z" fill="#DEE1E6"/>
<path d="M176.237 145.47C179.662 149.358 182.525 153.783 185.8 157.82C175.412 136.345 191.338 166.145 194.562 170.87C188.125 162.883 181.2 153.97 176.237 145.47Z" fill="#00454F"/>
<path d="M342.267 72.6625C345.68 102.638 346.142 130.738 313.442 143.55C289.455 154.175 255.855 155.55 239.042 131.725C232.33 122.213 231.18 102.388 242.317 95.1375C255.18 88.0125 273.442 89.8125 279.905 73.8125C290.742 56.625 282.242 32.6 291.617 21.5375C305.192 9.16252 320.017 14.775 331.942 26.2125C337.742 30.525 340.405 35.025 340.855 42.3C341.467 52.4125 341.78 62.55 342.255 72.6625H342.267Z" fill="#273339"/>
<path d="M344.008 79.7675C342.495 65.9925 340.708 52.255 339.02 38.505C340.058 60.5925 344.283 83.7675 345.47 106.23C345.945 131.343 320.12 141.555 298.77 140.33C297.795 140.28 297.82 141.83 298.808 141.855C340.683 142.293 353.245 118.268 344.02 79.7675H344.008Z" fill="#273339"/>
<path d="M288.875 29C287.925 57.3 284.438 85.625 248.425 87.5875C226.8 90.8375 227.413 123.775 242.85 130.987C232.013 122.35 228.438 106.637 237.275 95.1125C244.375 85.8625 258 88.8 267.675 83.8C287.725 73.45 289.3 49.0625 288.875 29.0125V29Z" fill="#273339"/>
<path d="M310.648 88.915C301.473 102.09 270.135 138.29 248.385 143.24C236.398 145.978 178.498 154.078 170.56 146.853C161.26 138.403 165.573 106.515 172.973 106.228C195.523 105.34 237.273 109.753 247.698 107.453C252.41 106.415 277.41 90.29 304.11 77.39C314.21 72.515 316.585 80.4275 310.66 88.9275L310.648 88.915Z" fill="#FFD3A5"/>
<path d="M288.043 120.538L279.28 88.2875C279.28 88.2875 293.968 80.1375 302.73 76.775C336.868 65.175 288.243 120.2 288.043 120.538Z" fill="#D9CBF6"/>
<path d="M290.24 116.425C288.29 107.138 286.128 96.475 282.64 88.275C285.353 97.375 287.528 107.988 290.24 116.425Z" fill="#273339"/>
<path d="M280.642 93.345L288.017 120.52C289.305 118.433 314.68 90.3325 315.005 79.4075L280.642 93.345Z" fill="#273339"/>
<path d="M357.52 178.135C354.645 179.06 272.72 155.36 272.72 155.36L282.395 126.91C282.395 126.91 277.62 117.76 279.833 108.96C337.92 5.98502 355.708 155.535 357.52 178.135Z" fill="#D9CBF6"/>
<path d="M295.145 87.025C293.033 89.4875 290.77 91.8125 288.595 94.225C289.52 92.4375 290.858 90.4875 291.645 88.8375C286.158 97.8625 276.495 106.288 279.008 117.925C279.333 119.375 281.27 129.175 282.408 127.475C275.195 111.6 285.37 97.9 295.145 87.0375V87.025Z" fill="#273339"/>
<path d="M308.757 124.875C301.795 123.325 294.007 123.875 287.295 123.713C293.97 125.25 302.682 124.8 308.757 124.875Z" fill="#273339"/>
<path d="M316.348 130.3C310.973 128.263 304.648 126.15 299.173 126.1C304.673 127.338 311.435 129.663 316.348 130.3Z" fill="#273339"/>
<path d="M320.153 77C319.828 78.4875 312.903 88.2 306.128 87.975C303.928 87.9 303.803 75.8375 303.803 75.8375L303.59 74.95L300.615 62.5125L317.228 51.625C317.228 51.625 320.278 76.35 320.153 76.9875V77Z" fill="#FFD3A5"/>
<path d="M300.618 62.525L303.593 74.9625C310.293 72.775 321.355 63.125 317.243 51.65C316.493 51.95 301.818 61.75 300.618 62.525Z" fill="#273339"/>
<path d="M284.51 39.635C275.447 71.135 311.835 81.71 322.71 51.485C337.235 14.585 293.647 1.48503 284.51 39.635Z" fill="#FFD3A5"/>
<path d="M321.133 53.1425C318.795 52.3675 314.358 44.1675 317.233 32.63C317.233 32.63 315.358 43.1675 315.733 44.88C316.108 46.5925 313.258 40.2675 315.458 30.9425C314.808 32.105 298.695 34.6925 297.045 32.2175C296.82 31.8175 303.795 31.5175 306.07 29.9675C306.07 29.9675 292.995 32.2675 287.52 31.23C289.695 11.0925 311.57 9.33 323.22 25.48C323.22 25.48 327.208 27.18 330.07 34.5175C332.933 41.855 323.658 53.955 321.133 53.1175V53.1425Z" fill="#273339"/>
<path d="M318.763 52.2775C318.763 52.2775 324.725 46.165 327.588 48.4025C331.713 52.5275 319.588 67.215 316.575 57.99L318.775 52.2775H318.763Z" fill="#FFD3A5"/>
<path d="M326.002 51.05C323.565 51.825 321.415 53.825 320.14 56.275C321.065 55.45 322.19 55.0875 323.327 56.2125C321.602 55.725 319.99 56.8625 319.015 58.575C318.852 58.7875 318.465 58.5875 318.59 58.3375C319.102 55.025 322.365 50.8 326.002 51.05Z" fill="#273339"/>
<path d="M337.032 95.355C351.57 189.93 314.107 170.043 261.207 150.818C256.532 149.293 277.857 113.518 282.632 115.718C293.882 120.918 309.645 129.743 310.282 129.68C311.545 129.543 313.032 120.018 319.557 92.2175C324.845 69.73 334.332 80.0675 337.02 95.355H337.032Z" fill="#FFD3A5"/>
<path d="M224.078 98.0225C222.903 102.723 234.728 104.623 234.728 104.623C228.765 106.61 228.44 112.273 232.665 115.86C227.19 118.773 227.203 124.835 230.828 128.785C223.065 145.01 256.578 148.385 265.665 152.21L284.578 117.56C284.578 117.56 266.303 98.21 255.878 95.21C250.09 93.5475 225.865 90.8475 224.078 98.0225Z" fill="#FFD3A5"/>
<path d="M234.895 104.538C241.182 104.425 249.107 105.263 254.445 107.075C248.432 105.425 240.02 106.463 234.895 104.538Z" fill="#273339"/>
<path d="M232.995 115.428C238.908 116.34 246.133 118.403 251.058 120.653C245.608 118.378 237.133 118.203 232.995 115.428Z" fill="#273339"/>
<path d="M231.01 128.81C236.298 129.947 242.885 132.047 247.41 133.71C242.16 131.985 235.535 131.422 231.01 128.81Z" fill="#273339"/>
<path d="M310.35 129.705C301.45 124.73 292.15 119.418 282.8 115.305L283.013 115.43C276.875 109.618 270.8 103.455 263.463 99.1675C270.513 104.005 276.35 110.443 282.6 116.193C291.775 120.33 301.213 125.468 310.35 129.705Z" fill="#273339"/>
<path d="M343.285 127.88L313.423 112.88C313.423 112.88 317.16 96.505 320.498 87.73C334.635 54.5675 343.16 127.505 343.285 127.88Z" fill="#D9CBF6"/>
<path d="M341.685 123.503C333.473 118.765 324.073 113.253 315.648 110.365C324.223 114.415 333.585 119.878 341.685 123.503Z" fill="#273339"/>
<path d="M339.667 126.068C340.942 126.843 342.242 127.568 343.53 128.318C342.592 119.905 341.242 111.53 339.03 103.343C340.055 111.58 341.405 119.755 342.992 127.905L343.342 127.655C342.117 127.118 340.905 126.58 339.667 126.08V126.068Z" fill="#273339"/>
<path d="M340.683 107.455C340.533 109.368 340.595 111.293 340.858 113.193C341.008 111.28 340.945 109.355 340.683 107.455Z" fill="#273339"/>
<path d="M317.112 114.708C316.825 114.495 313.8 112.845 313.55 112.795C314.337 109.083 316.125 104.095 316.2 100.895C314.962 104.97 313.837 108.845 312.887 112.958C312.812 113.07 317.025 115.008 317.112 114.72V114.708Z" fill="#273339"/>
<path d="M314.72 102.312C314.508 103.5 314.508 104.7 314.72 105.888C314.933 104.7 314.933 103.5 314.72 102.312Z" fill="#273339"/>
<path d="M197.557 148.95H284.482V152.85H197.557V148.95Z" fill="#C8C7C6"/>
<path d="M265.915 148.95L268.89 152.85H197.59V148.95H265.915Z" fill="#A7A6A6"/>
<path d="M262.255 152.885H177.542L170.492 95.3475H255.205L262.255 152.885Z" fill="#C8C7C6"/>
<path d="M221.542 124.12C221.717 130.87 211.217 130.745 211.23 124.12C211.042 117.37 221.567 117.495 221.542 124.12Z" fill="white"/>
<path d="M171.33 100.903C167.53 107.015 153.618 115.728 161.23 121.428C158.13 122.153 153.318 127.815 159.255 131.153C155.355 132.428 153.943 138.453 158.63 140.665C148.043 152.565 181.88 156.778 187.568 147.265C189.868 143.328 183.893 142.865 183.893 142.865C190.455 142.828 200.43 132.765 186.418 131.365C193.83 131.128 201.343 119.74 187.668 120.415C187.668 120.415 193.543 117.465 192.855 113.403C191.718 106.678 177.88 113.828 172.718 111.853L171.318 100.89L171.33 100.903Z" fill="#FFD3A5"/>
<path d="M159.11 141C165.61 143.862 178.41 145.775 184.21 142.425C175.485 143.012 167.697 142.838 159.11 141Z" fill="#273339"/>
<path d="M159.145 131.188C165.92 134.412 179.745 135.475 186.795 131.2C180.632 133.088 166.857 132.888 159.145 131.188Z" fill="#273339"/>
<path d="M188.265 119.965C179.628 123.253 170.015 122.515 161.515 121.765C169.515 124.628 181.928 125.165 188.265 119.965Z" fill="#273339"/>
<path d="M-0.140244 265.1C1.04726 268.313 59.2722 340.688 63.2473 342.05C72.6348 339.675 135.21 288.075 136.447 287.4L97.6348 238.863C91.4848 244.075 56.7347 273.575 51.4473 278.05C51.4473 278.05 16.7598 260.313 12.2473 259.288C7.74727 258.288 -1.32773 261.888 -0.127731 265.1H-0.140244Z" fill="#FFD3A5"/>
<path d="M-0.0400467 265.08C1.14745 268.28 59.3849 340.68 63.3474 342.03C64.6599 342.493 73.26 336.53 84.1475 328.418C80.96 325.955 1.27244 260.555 31.8974 268.18C23.2099 263.905 14.4725 259.743 12.36 259.268C7.85997 258.255 -1.20254 261.88 -0.0275345 265.08H-0.0400467Z" fill="#00454F"/>
<path d="M61.2677 263.763L101.655 318.263C107.593 314.138 249.68 215.55 251.093 214.563C288.33 244.313 369.455 239.45 354.605 177.55C330.655 172.25 310.08 139.563 263.58 131.838C221.355 132.375 84.4677 251.088 61.2552 263.763H61.2677Z" fill="#DEE1E6"/>
<path d="M250.887 214.585C250.887 214.585 254.612 217.085 260.212 220.185C270.112 208.335 291.075 186.798 291.712 186.035L250.887 214.585Z" fill="#00454F"/>
<path d="M319.47 157.39C329.395 164.665 341.282 172.378 348.257 181.903C338.445 174.153 328.945 165.128 319.47 157.39Z" fill="#00454F"/>
<path d="M71.1925 261.728C83.4925 276.703 97.73 292.765 107.855 308.253C95.3925 293.365 81.58 277.178 71.1925 261.728Z" fill="#00454F"/>
<path d="M182.612 262.34C200.1 249.203 218.887 235.203 236.987 224.153C219.587 236.978 200.362 252.465 182.612 262.34Z" fill="#00454F"/>
<path d="M139.09 206.208C158.428 191.12 178.628 177.12 198.415 162.608C211.528 153.208 226.04 142.458 241.29 138.333C204.578 155.77 172.865 186.508 139.09 206.208Z" fill="#00454F"/>
</g>
<defs>
<clipPath id="clip0_2_816">
<rect width="431" height="342" fill="white"/>
</clipPath>
</defs>
</svg>
